<svg width="38" height="38" viewBox="0 0 38 38" fill="none" xmlns="http://www.w3.org/2000/svg">
<path d="M35.625 0H2.375C1.74511 0 1.14102 0.250222 0.695621 0.695621C0.250222 1.14102 0 1.74511 0 2.375L0 35.625C0 36.2549 0.250222 36.859 0.695621 37.3044C1.14102 37.7498 1.74511 38 2.375 38H35.625C36.2549 38 36.859 37.7498 37.3044 37.3044C37.7498 36.859 38 36.2549 38 35.625V2.375C38 1.74511 37.7498 1.14102 37.3044 0.695621C36.859 0.250222 36.2549 0 35.625 0ZM5.14583 7.125C5.14993 6.81133 5.27636 6.51166 5.49818 6.28985C5.72 6.06803 6.01966 5.9416 6.33333 5.9375H15.8333C16.147 5.9416 16.4467 6.06803 16.6685 6.28985C16.8903 6.51166 17.0167 6.81133 17.0208 7.125V9.5C17.0208 9.81495 16.8957 10.117 16.673 10.3397C16.4503 10.5624 16.1483 10.6875 15.8333 10.6875C15.5184 10.6875 15.2163 10.5624 14.9936 10.3397C14.7709 10.117 14.6458 9.81495 14.6458 9.5V8.3125H12.2708V16.2292C12.2708 16.5441 12.1457 16.8462 11.923 17.0689C11.7003 17.2916 11.3983 17.4167 11.0833 17.4167C10.7684 17.4167 10.4663 17.2916 10.2436 17.0689C10.0209 16.8462 9.89583 16.5441 9.89583 16.2292V8.3125H7.52083V9.5C7.52083 9.81495 7.39572 10.117 7.17302 10.3397C6.95032 10.5624 6.64828 10.6875 6.33333 10.6875C6.01839 10.6875 5.71634 10.5624 5.49364 10.3397C5.27094 10.117 5.14583 9.81495 5.14583 9.5V7.125ZM30.875 32.0625H6.33333C6.01839 32.0625 5.71634 31.9374 5.49364 31.7147C5.27094 31.492 5.14583 31.1899 5.14583 30.875C5.14583 30.5601 5.27094 30.258 5.49364 30.0353C5.71634 29.8126 6.01839 29.6875 6.33333 29.6875H30.875C31.1899 29.6875 31.492 29.8126 31.7147 30.0353C31.9374 30.258 32.0625 30.5601 32.0625 30.875C32.0625 31.1899 31.9374 31.492 31.7147 31.7147C31.492 31.9374 31.1899 32.0625 30.875 32.0625ZM30.875 24.1458H6.33333C6.01839 24.1458 5.71634 24.0207 5.49364 23.798C5.27094 23.5753 5.14583 23.2733 5.14583 22.9583C5.14583 22.6434 5.27094 22.3413 5.49364 22.1186C5.71634 21.8959 6.01839 21.7708 6.33333 21.7708H30.875C31.1899 21.7708 31.492 21.8959 31.7147 22.1186C31.9374 22.3413 32.0625 22.6434 32.0625 22.9583C32.0625 23.2733 31.9374 23.5753 31.7147 23.798C31.492 24.0207 31.1899 24.1458 30.875 24.1458ZM30.875 16.2292H20.9792C20.6642 16.2292 20.3622 16.1041 20.1395 15.8814C19.9168 15.6587 19.7917 15.3566 19.7917 15.0417C19.7917 14.7267 19.9168 14.4247 20.1395 14.202C20.3622 13.9793 20.6642 13.8542 20.9792 13.8542H30.875C31.1899 13.8542 31.492 13.9793 31.7147 14.202C31.9374 14.4247 32.0625 14.7267 32.0625 15.0417C32.0625 15.3566 31.9374 15.6587 31.7147 15.8814C31.492 16.1041 31.1899 16.2292 30.875 16.2292ZM30.875 8.3125H20.9792C20.6642 8.3125 20.3622 8.18739 20.1395 7.96469C19.9168 7.74199 19.7917 7.43994 19.7917 7.125C19.7917 6.81006 19.9168 6.50801 20.1395 6.28531C20.3622 6.06261 20.6642 5.9375 20.9792 5.9375H30.875C31.1899 5.9375 31.492 6.06261 31.7147 6.28531C31.9374 6.50801 32.0625 6.81006 32.0625 7.125C32.0625 7.43994 31.9374 7.74199 31.7147 7.96469C31.492 8.18739 31.1899 8.3125 30.875 8.3125Z" fill="#421ABC"/>
</svg>
