<svg width="32" height="46" viewBox="0 0 32 46" fill="none" xmlns="http://www.w3.org/2000/svg">
<path d="M27.4286 46C29.9497 46 32 43.9369 32 41.4V4.6C32 2.0631 29.9497 0 27.4286 0H4.57143C2.05029 0 0 2.0631 0 4.6V41.4C0 43.9369 2.05029 46 4.57143 46H27.4286ZM16 34.5C16.6062 34.5 17.1876 34.7423 17.6162 35.1737C18.0449 35.605 18.2857 36.19 18.2857 36.8C18.2857 37.41 18.0449 37.995 17.6162 38.4263C17.1876 38.8577 16.6062 39.1 16 39.1C15.3938 39.1 14.8124 38.8577 14.3838 38.4263C13.9551 37.995 13.7143 37.41 13.7143 36.8C13.7143 36.19 13.9551 35.605 14.3838 35.1737C14.8124 34.7423 15.3938 34.5 16 34.5Z" fill="#421ABC"/>
</svg>
